<svg width="509" height="399" viewBox="0 0 509 399" fill="none" xmlns="http://www.w3.org/2000/svg">
<g clip-path="url(#clip0_10_64)">
<path d="M82.5499 303.89C85.6632 300.767 89.8897 299.008 94.2999 299H499.75C501.394 298.998 503.001 299.483 504.369 300.396C505.736 301.308 506.802 302.606 507.431 304.125C508.06 305.644 508.223 307.316 507.901 308.928C507.578 310.54 506.784 312.02 505.62 313.18L425.53 393.27C423.986 394.812 422.154 396.035 420.138 396.869C418.122 397.703 415.962 398.131 413.78 398.13H8.32986C6.69741 398.12 5.10409 397.629 3.7488 396.719C2.39351 395.809 1.33628 394.52 0.709079 393.013C0.0818822 391.506 -0.0874954 389.847 0.222089 388.244C0.531673 386.641 1.3065 385.165 2.44986 384L82.5499 303.89Z" fill="white"/>
<path d="M82.5499 4.85001C85.6967 1.7818 89.9051 0.0447104 94.2999 8.76122e-06H499.75C501.394 -0.0023793 503.001 0.48347 504.369 1.39595C505.736 2.30843 506.802 3.60643 507.431 5.12537C508.06 6.6443 508.223 8.31575 507.901 9.92777C507.578 11.5398 506.784 13.0198 505.62 14.18L425.53 94.27C423.986 95.8121 422.154 97.035 420.138 97.8689C418.122 98.7028 415.962 99.1313 413.78 99.13H8.32986C6.69741 99.1199 5.10409 98.6292 3.7488 97.7192C2.39351 96.8091 1.33628 95.52 0.709079 94.0129C0.0818822 92.5057 -0.0874954 90.8471 0.222089 89.2443C0.531673 87.6414 1.3065 86.1652 2.44986 85L82.5499 4.85001Z" fill="white"/>
<path d="M425.53 153.42C423.986 151.878 422.154 150.655 420.138 149.821C418.122 148.987 415.962 148.559 413.78 148.56H8.32987C6.68721 148.56 5.08153 149.048 3.71565 149.96C2.34977 150.873 1.28498 152.17 0.655773 153.687C0.026567 155.204 -0.13882 156.874 0.180503 158.485C0.499826 160.097 1.28953 161.577 2.44987 162.74L82.5499 242.83C84.0929 244.373 85.9249 245.596 87.9411 246.43C89.9573 247.264 92.118 247.692 94.2999 247.69H499.75C501.394 247.692 503.001 247.207 504.369 246.294C505.736 245.382 506.802 244.084 507.431 242.565C508.06 241.046 508.223 239.374 507.901 237.762C507.578 236.15 506.784 234.67 505.62 233.51L425.53 153.42Z" fill="white"/>
</g>
<defs>
<clipPath id="clip0_10_64">
<rect width="508.07" height="398.17" fill="white"/>
</clipPath>
</defs>
</svg>
