<svg width="296" height="296" viewBox="0 0 296 296" fill="none" xmlns="http://www.w3.org/2000/svg">
<path d="M54.9212 54.004C57.7348 52.3796 61.2012 52.3796 64.0148 54.004L94.2979 71.488C97.1115 73.1124 98.8447 76.1144 98.8447 79.3632V114.331C98.8447 117.58 97.1115 120.582 94.2979 122.206L64.0148 139.69C61.2012 141.315 57.7348 141.315 54.9212 139.69L24.638 122.206C21.8245 120.582 20.0913 117.58 20.0913 114.331V79.3632C20.0913 76.1144 21.8245 73.1124 24.6381 71.488L54.9212 54.004Z" fill="white"/>
<path d="M54.9211 156.308C57.7346 154.683 61.2011 154.683 64.0146 156.308L94.2978 173.792C97.1113 175.416 98.8446 178.418 98.8446 181.667V216.635C98.8446 219.884 97.1113 222.886 94.2978 224.51L64.0146 241.994C61.2011 243.619 57.7346 243.619 54.9211 241.994L24.6379 224.51C21.8243 222.886 20.0911 219.884 20.0911 216.635V181.667C20.0911 178.418 21.8243 175.416 24.6379 173.792L54.9211 156.308Z" fill="white"/>
<path d="M145.857 207.689C148.671 206.064 152.137 206.064 154.951 207.689L185.234 225.173C188.048 226.797 189.781 229.799 189.781 233.048V268.016C189.781 271.265 188.048 274.267 185.234 275.891L154.951 293.375C152.137 294.999 148.671 294.999 145.857 293.375L115.574 275.891C112.761 274.267 111.027 271.265 111.027 268.016V233.048C111.027 229.799 112.761 226.797 115.574 225.173L145.857 207.689Z" fill="white"/>
<path d="M145.857 105.388C148.671 103.763 152.137 103.763 154.951 105.388L185.234 122.872C188.048 124.496 189.781 127.498 189.781 130.747V165.715C189.781 168.964 188.048 171.966 185.234 173.59L154.951 191.074C152.137 192.699 148.671 192.699 145.857 191.074L115.574 173.59C112.761 171.966 111.027 168.964 111.027 165.715V130.747C111.027 127.498 112.761 124.496 115.574 122.872L145.857 105.388Z" fill="white"/>
<path d="M145.857 2.62508C148.671 1.00067 152.137 1.00068 154.951 2.62509L185.234 20.1091C188.048 21.7335 189.781 24.7355 189.781 27.9843V62.9523C189.781 66.2011 188.048 69.2032 185.234 70.8276L154.951 88.3116C152.137 89.936 148.671 89.936 145.857 88.3116L115.574 70.8276C112.761 69.2032 111.027 66.2011 111.027 62.9523V27.9843C111.027 24.7355 112.761 21.7335 115.574 20.1091L145.857 2.62508Z" fill="white"/>
<path d="M231.337 54.004C234.15 52.3796 237.617 52.3796 240.43 54.004L270.713 71.488C273.527 73.1124 275.26 76.1144 275.26 79.3632V114.331C275.26 117.58 273.527 120.582 270.713 122.206L240.43 139.69C237.617 141.315 234.15 141.315 231.337 139.69L201.053 122.206C198.24 120.582 196.507 117.58 196.507 114.331V79.3632C196.507 76.1144 198.24 73.1124 201.053 71.488L231.337 54.004Z" fill="white"/>
<path d="M231.336 156.308C234.15 154.683 237.616 154.683 240.43 156.308L270.713 173.792C273.527 175.416 275.26 178.418 275.26 181.667V216.635C275.26 219.884 273.527 222.886 270.713 224.51L240.43 241.994C237.616 243.619 234.15 243.619 231.336 241.994L201.053 224.51C198.24 222.886 196.506 219.884 196.506 216.635V181.667C196.506 178.418 198.24 175.416 201.053 173.792L231.336 156.308Z" fill="white"/>
</svg>
